<?xml version="1.0" encoding="UTF-8" standalone="no"?>
<svg
   xmlns:dc="http://purl.org/dc/elements/1.1/"
   xmlns:cc="http://creativecommons.org/ns#"
   xmlns:rdf="http://www.w3.org/1999/02/22-rdf-syntax-ns#"
   xmlns:svg="http://www.w3.org/2000/svg"
   xmlns="http://www.w3.org/2000/svg"
   xmlns:sodipodi="http://sodipodi.sourceforge.net/DTD/sodipodi-0.dtd"
   xmlns:inkscape="http://www.inkscape.org/namespaces/inkscape"
   width="192"
   height="192"
   version="1.1"
   viewBox="0 0 192 192"
   id="svg14"
   sodipodi:docname="icon-visual-studio.svg"
   inkscape:version="0.92.4 (5da689c313, 2019-01-14)">
  <metadata
     id="metadata20">
    <rdf:RDF>
      <cc:Work
         rdf:about="">
        <dc:format>image/svg+xml</dc:format>
        <dc:type
           rdf:resource="http://purl.org/dc/dcmitype/StillImage" />
        <dc:title></dc:title>
      </cc:Work>
    </rdf:RDF>
  </metadata>
  <defs
     id="defs18">
    <clipPath
       id="clip0">
      <rect
         style="fill:#ffffff"
         y="0"
         x="0"
         width="128"
         height="128"
         id="rect121" />
    </clipPath>
    <clipPath
       id="clip1">
      <rect
         style="fill:#ffffff"
         y="0"
         x="0"
         width="128"
         height="128"
         id="rect124" />
    </clipPath>
    <mask
       id="mask0"
       maskUnits="userSpaceOnUse"
       x="0"
       y="0"
       width="128"
       height="129">
      <path
         style="fill:#ffffff"
         inkscape:connector-curvature="0"
         d="M 23.4667,108.268 2.13338,92.2677 C 1.46852,91.7733 0.929096,91.1295 0.558551,90.3885 0.188005,89.6474 -0.00330126,88.8296 4.31054e-5,88.001 v -48 C -0.00330126,39.1725 0.188005,38.3547 0.558551,37.6136 0.929096,36.8725 1.46852,36.2288 2.13338,35.7344 l 21.33332,-16 c -0.6648,0.4944 -1.2043,1.1381 -1.5748,1.8792 -0.3706,0.7411 -0.5619,1.5589 -0.5585,2.3874 v 80 c -0.0034,0.829 0.1879,1.646 0.5585,2.387 0.3705,0.742 0.91,1.385 1.5748,1.88 z"
         id="path2" />
      <path
         style="fill:#ffffff"
         inkscape:connector-curvature="0"
         d="m 125.627,22.2134 c -0.879,-0.5771 -1.909,-0.8831 -2.96,-0.88 -0.682,-0.0057 -1.358,0.1234 -1.989,0.3796 -0.632,0.2563 -1.206,0.6348 -1.691,1.1137 L 118.613,23.2 95.9468,44.9334 76.0535,64 52.5068,86.5867 30.7201,107.467 30.3468,107.84 c -0.4849,0.479 -1.0596,0.857 -1.6911,1.114 -0.6315,0.256 -1.3074,0.385 -1.9889,0.379 -1.1536,-0.002 -2.2758,-0.375 -3.2001,-1.065 L 2.13338,92.2677 C 3.21769,93.081 4.57109,93.45 5.91837,93.3014 7.26564,93.1528 8.5058,92.4968 9.3868,91.4667 l 23.68,-27.4933 19.44,-22.56 L 86.5601,1.86669 C 87.0547,1.28083 87.6713,0.810184 88.3669,0.487733 89.0624,0.165283 89.8201,-0.00117464 90.5868,2.3035e-5 91.6384,-0.00305776 92.6677,0.302953 93.5468,0.880023 Z"
         id="path4" />
      <path
         style="fill:#ffffff"
         inkscape:connector-curvature="0"
         d="M 125.627,105.787 93.6268,127.12 c -1.0885,0.712 -2.3974,1.007 -3.686,0.83 -1.2886,-0.176 -2.4702,-0.812 -3.3273,-1.79 L 52.5068,86.5867 33.0668,63.9734 9.3868,36.5068 C 8.49822,35.4869 7.25699,34.8404 5.91187,34.697 4.56675,34.5536 3.21703,34.9247 2.13338,35.7344 l 21.33332,-16 c 0.9243,-0.6903 2.0465,-1.0653 3.2001,-1.0676 0.6815,-0.0056 1.3574,0.1235 1.9889,0.3797 0.6315,0.2563 1.2062,0.6347 1.6911,1.1137 L 30.7201,20.5335 52.5068,41.4134 76.0535,64 l 19.92,19.0935 22.6395,21.7065 0.374,0.374 c 0.485,0.478 1.059,0.857 1.691,1.113 0.631,0.256 1.307,0.385 1.989,0.38 1.051,0.003 2.081,-0.303 2.96,-0.88 z"
         id="path6" />
      <path
         style="fill:#ffffff"
         inkscape:connector-curvature="0"
         d="m 128,26.6669 v 74.6671 c 0.001,0.88 -0.215,1.747 -0.629,2.523 -0.414,0.777 -1.013,1.44 -1.744,1.93 L 93.6268,127.12 c 0.7311,-0.49 1.3299,-1.153 1.7439,-1.929 0.414,-0.777 0.6301,-1.644 0.6292,-2.524 L 95.9735,83.0935 95.9468,44.9334 95.9199,5.33354 C 95.9241,4.45275 95.7094,3.58471 95.2951,2.8074 94.8809,2.03009 94.2803,1.36768 93.5468,0.880023 L 125.627,22.2134 c 0.729,0.4919 1.327,1.1552 1.74,1.9315 0.414,0.7764 0.631,1.6423 0.633,2.522 z"
         id="path8" />
    </mask>
    <filter
       style="color-interpolation-filters:sRGB"
       id="filter0_dd"
       x="-26.1998"
       y="-21.25"
       width="180.16"
       height="166"
       filterUnits="userSpaceOnUse">
      <feFlood
         flood-opacity="0"
         result="BackgroundImageFix"
         id="feFlood31" />
      <feColorMatrix
         in="SourceAlpha"
         type="matrix"
         values="0 0 0 0 0 0 0 0 0 0 0 0 0 0 0 0 0 0 127 0"
         result="hardAlpha"
         id="feColorMatrix33" />
      <feOffset
         dy="1.34583"
         id="feOffset35" />
      <feGaussianBlur
         stdDeviation="1.34583"
         id="feGaussianBlur37" />
      <feColorMatrix
         type="matrix"
         values="0 0 0 0 0 0 0 0 0 0 0 0 0 0 0 0 0 0 0.24 0"
         id="feColorMatrix39" />
      <feBlend
         mode="normal"
         in2="BackgroundImageFix"
         result="effect1_dropShadow"
         id="feBlend41" />
      <feColorMatrix
         in="SourceAlpha"
         type="matrix"
         values="0 0 0 0 0 0 0 0 0 0 0 0 0 0 0 0 0 0 127 0"
         result="hardAlpha"
         id="feColorMatrix43" />
      <feOffset
         dy="7.08333"
         id="feOffset45" />
      <feGaussianBlur
         stdDeviation="14.1667"
         id="feGaussianBlur47" />
      <feColorMatrix
         type="matrix"
         values="0 0 0 0 0 0 0 0 0 0 0 0 0 0 0 0 0 0 0.22 0"
         id="feColorMatrix49" />
      <feBlend
         mode="normal"
         in2="effect1_dropShadow"
         result="effect2_dropShadow"
         id="feBlend51" />
      <feBlend
         mode="normal"
         in="SourceGraphic"
         in2="effect2_dropShadow"
         result="shape"
         id="feBlend53" />
    </filter>
    <linearGradient
       id="paint0_linear"
       x1="104"
       y1="6.5111499e-06"
       x2="8.9547901"
       y2="95.662498"
       gradientUnits="userSpaceOnUse">
      <stop
         stop-color="#7252AA"
         id="stop106" />
      <stop
         offset="1"
         stop-color="#7252AA"
         id="stop108" />
    </linearGradient>
    <filter
       style="color-interpolation-filters:sRGB"
       id="filter1_dd"
       x="-26.1998"
       y="-2.58319"
       width="180.16"
       height="166"
       filterUnits="userSpaceOnUse">
      <feFlood
         flood-opacity="0"
         result="BackgroundImageFix"
         id="feFlood56" />
      <feColorMatrix
         in="SourceAlpha"
         type="matrix"
         values="0 0 0 0 0 0 0 0 0 0 0 0 0 0 0 0 0 0 127 0"
         result="hardAlpha"
         id="feColorMatrix58" />
      <feOffset
         dy="1.34583"
         id="feOffset60" />
      <feGaussianBlur
         stdDeviation="1.34583"
         id="feGaussianBlur62" />
      <feColorMatrix
         type="matrix"
         values="0 0 0 0 0 0 0 0 0 0 0 0 0 0 0 0 0 0 0.24 0"
         id="feColorMatrix64" />
      <feBlend
         mode="normal"
         in2="BackgroundImageFix"
         result="effect1_dropShadow"
         id="feBlend66" />
      <feColorMatrix
         in="SourceAlpha"
         type="matrix"
         values="0 0 0 0 0 0 0 0 0 0 0 0 0 0 0 0 0 0 127 0"
         result="hardAlpha"
         id="feColorMatrix68" />
      <feOffset
         dy="7.08333"
         id="feOffset70" />
      <feGaussianBlur
         stdDeviation="14.1667"
         id="feGaussianBlur72" />
      <feColorMatrix
         type="matrix"
         values="0 0 0 0 0 0 0 0 0 0 0 0 0 0 0 0 0 0 0.22 0"
         id="feColorMatrix74" />
      <feBlend
         mode="normal"
         in2="effect1_dropShadow"
         result="effect2_dropShadow"
         id="feBlend76" />
      <feBlend
         mode="normal"
         in="SourceGraphic"
         in2="effect2_dropShadow"
         result="shape"
         id="feBlend78" />
    </filter>
    <linearGradient
       id="paint1_linear"
       x1="12.0001"
       y1="23.3335"
       x2="101.333"
       y2="123.333"
       gradientUnits="userSpaceOnUse">
      <stop
         stop-color="#AE7FE2"
         id="stop111" />
      <stop
         offset="1"
         stop-color="#9A70D4"
         id="stop113" />
    </linearGradient>
    <filter
       style="color-interpolation-filters:sRGB"
       id="filter2_dd"
       x="8.5463305"
       y="-84.119797"
       width="204.453"
       height="296.23999"
       filterUnits="userSpaceOnUse">
      <feFlood
         flood-opacity="0"
         result="BackgroundImageFix"
         id="feFlood81" />
      <feColorMatrix
         in="SourceAlpha"
         type="matrix"
         values="0 0 0 0 0 0 0 0 0 0 0 0 0 0 0 0 0 0 127 0"
         result="hardAlpha"
         id="feColorMatrix83" />
      <feOffset
         id="feOffset85" />
      <feGaussianBlur
         stdDeviation="0.708333"
         id="feGaussianBlur87" />
      <feColorMatrix
         type="matrix"
         values="0 0 0 0 0 0 0 0 0 0 0 0 0 0 0 0 0 0 0.24 0"
         id="feColorMatrix89" />
      <feBlend
         mode="normal"
         in2="BackgroundImageFix"
         result="effect1_dropShadow"
         id="feBlend91" />
      <feColorMatrix
         in="SourceAlpha"
         type="matrix"
         values="0 0 0 0 0 0 0 0 0 0 0 0 0 0 0 0 0 0 127 0"
         result="hardAlpha"
         id="feColorMatrix93" />
      <feOffset
         id="feOffset95" />
      <feGaussianBlur
         stdDeviation="42.5"
         id="feGaussianBlur97" />
      <feColorMatrix
         type="matrix"
         values="0 0 0 0 0 0 0 0 0 0 0 0 0 0 0 0 0 0 0.3 0"
         id="feColorMatrix99" />
      <feBlend
         mode="normal"
         in2="effect1_dropShadow"
         result="effect2_dropShadow"
         id="feBlend101" />
      <feBlend
         mode="normal"
         in="SourceGraphic"
         in2="effect2_dropShadow"
         result="shape"
         id="feBlend103" />
    </filter>
    <linearGradient
       id="paint2_linear"
       x1="110.394"
       y1="-1.6937799"
       x2="110.394"
       y2="127.013"
       gradientUnits="userSpaceOnUse">
      <stop
         stop-color="#D59DFF"
         id="stop116" />
      <stop
         offset="1"
         stop-color="#C18EF1"
         id="stop118" />
    </linearGradient>
    <mask
       id="mask1013"
       maskUnits="userSpaceOnUse"
       x="0"
       y="0"
       width="128"
       height="129">
      <path
         style="fill:#ffffff"
         inkscape:connector-curvature="0"
         d="M 23.4667,108.268 2.13338,92.2677 C 1.46852,91.7733 0.929096,91.1295 0.558551,90.3885 0.188005,89.6474 -0.00330126,88.8296 4.31054e-5,88.001 v -48 C -0.00330126,39.1725 0.188005,38.3547 0.558551,37.6136 0.929096,36.8725 1.46852,36.2288 2.13338,35.7344 l 21.33332,-16 c -0.6648,0.4944 -1.2043,1.1381 -1.5748,1.8792 -0.3706,0.7411 -0.5619,1.5589 -0.5585,2.3874 v 80 c -0.0034,0.829 0.1879,1.646 0.5585,2.387 0.3705,0.742 0.91,1.385 1.5748,1.88 z"
         id="path1005" />
      <path
         style="fill:#ffffff"
         inkscape:connector-curvature="0"
         d="m 125.627,22.2134 c -0.879,-0.5771 -1.909,-0.8831 -2.96,-0.88 -0.682,-0.0057 -1.358,0.1234 -1.989,0.3796 -0.632,0.2563 -1.206,0.6348 -1.691,1.1137 L 118.613,23.2 95.9468,44.9334 76.0535,64 52.5068,86.5867 30.7201,107.467 30.3468,107.84 c -0.4849,0.479 -1.0596,0.857 -1.6911,1.114 -0.6315,0.256 -1.3074,0.385 -1.9889,0.379 -1.1536,-0.002 -2.2758,-0.375 -3.2001,-1.065 L 2.13338,92.2677 C 3.21769,93.081 4.57109,93.45 5.91837,93.3014 7.26564,93.1528 8.5058,92.4968 9.3868,91.4667 l 23.68,-27.4933 19.44,-22.56 L 86.5601,1.86669 C 87.0547,1.28083 87.6713,0.810184 88.3669,0.487733 89.0624,0.165283 89.8201,-0.00117464 90.5868,2.3035e-5 91.6384,-0.00305776 92.6677,0.302953 93.5468,0.880023 Z"
         id="path1007" />
      <path
         style="fill:#ffffff"
         inkscape:connector-curvature="0"
         d="M 125.627,105.787 93.6268,127.12 c -1.0885,0.712 -2.3974,1.007 -3.686,0.83 -1.2886,-0.176 -2.4702,-0.812 -3.3273,-1.79 L 52.5068,86.5867 33.0668,63.9734 9.3868,36.5068 C 8.49822,35.4869 7.25699,34.8404 5.91187,34.697 4.56675,34.5536 3.21703,34.9247 2.13338,35.7344 l 21.33332,-16 c 0.9243,-0.6903 2.0465,-1.0653 3.2001,-1.0676 0.6815,-0.0056 1.3574,0.1235 1.9889,0.3797 0.6315,0.2563 1.2062,0.6347 1.6911,1.1137 L 30.7201,20.5335 52.5068,41.4134 76.0535,64 l 19.92,19.0935 22.6395,21.7065 0.374,0.374 c 0.485,0.478 1.059,0.857 1.691,1.113 0.631,0.256 1.307,0.385 1.989,0.38 1.051,0.003 2.081,-0.303 2.96,-0.88 z"
         id="path1009" />
      <path
         style="fill:#ffffff"
         inkscape:connector-curvature="0"
         d="m 128,26.6669 v 74.6671 c 0.001,0.88 -0.215,1.747 -0.629,2.523 -0.414,0.777 -1.013,1.44 -1.744,1.93 L 93.6268,127.12 c 0.7311,-0.49 1.3299,-1.153 1.7439,-1.929 0.414,-0.777 0.6301,-1.644 0.6292,-2.524 L 95.9735,83.0935 95.9468,44.9334 95.9199,5.33354 C 95.9241,4.45275 95.7094,3.58471 95.2951,2.8074 94.8809,2.03009 94.2803,1.36768 93.5468,0.880023 L 125.627,22.2134 c 0.729,0.4919 1.327,1.1552 1.74,1.9315 0.414,0.7764 0.631,1.6423 0.633,2.522 z"
         id="path1011" />
    </mask>
  </defs>
  <sodipodi:namedview
     pagecolor="#ffffff"
     bordercolor="#666666"
     borderopacity="1"
     objecttolerance="10"
     gridtolerance="10"
     guidetolerance="10"
     inkscape:pageopacity="0"
     inkscape:pageshadow="2"
     inkscape:window-width="2560"
     inkscape:window-height="1377"
     id="namedview16"
     showgrid="false"
     inkscape:zoom="2.4583333"
     inkscape:cx="109.54355"
     inkscape:cy="87.634381"
     inkscape:window-x="1912"
     inkscape:window-y="-8"
     inkscape:window-maximized="1"
     inkscape:current-layer="svg14" />
  <rect
     style="opacity:1;fill:#a7c080;stroke:none;fill-opacity:1"
     id="rect2"
     rx="10"
     height="153"
     width="153"
     y="19.5"
     x="19.5" />
  <path
     id="path11"
     d="m 57.849749,137.66538 -20.079083,-15.0597 c -0.625772,-0.46543 -1.133482,-1.07128 -1.482242,-1.76881 -0.34876,-0.69753 -0.528819,-1.46715 -0.525671,-2.24704 V 73.411864 c -0.0031,-0.77979 0.176911,-1.54951 0.525671,-2.247039 0.34876,-0.697529 0.85647,-1.303384 1.482242,-1.768717 L 57.849749,54.336786 c -0.625715,0.465333 -1.133496,1.071188 -1.482214,1.768717 -0.348811,0.697529 -0.528864,1.467249 -0.525664,2.247039 v 75.296708 c -0.0032,0.77932 0.176853,1.54922 0.525664,2.24666 0.348718,0.69743 0.856499,1.30357 1.482214,1.76947 z"
     inkscape:connector-curvature="0"
     style="fill:#2b3339;stroke-width:0.94120765;stroke:none;fill-opacity:1" />
  <g
     id="g15"
     style="filter:url(#filter0_dd);fill:#323c41;fill-opacity:1;stroke:none"
     transform="matrix(0.94120763,0,0,0.94120763,35.762712,35.762712)">
    <path
       id="path13"
       d="m 125.627,22.2134 c -0.879,-0.5771 -1.909,-0.8831 -2.96,-0.88 -0.682,-0.0057 -1.358,0.1234 -1.989,0.3796 -0.632,0.2563 -1.206,0.6348 -1.691,1.1137 L 118.614,23.2 95.9469,44.9334 76.0535,64 52.5069,86.5867 30.7202,107.467 30.3469,107.84 c -0.4849,0.479 -1.0596,0.857 -1.6911,1.114 -0.6315,0.256 -1.3074,0.385 -1.9889,0.379 -1.1536,-0.002 -2.2758,-0.376 -3.2,-1.066 L 2.13354,92.2667 C 3.21786,93.08 4.57117,93.45 5.91845,93.3014 7.26573,93.1528 8.50588,92.4968 9.38688,91.4667 L 21.3335,77.6 33.0669,63.9734 52.5069,41.4134 86.5602,1.86669 C 87.0547,1.28083 87.6714,0.810184 88.367,0.487733 89.0625,0.165283 89.8202,-0.00117464 90.5869,2.3035e-5 91.6385,-0.00305776 92.6678,0.302953 93.5469,0.880023 Z"
       inkscape:connector-curvature="0"
       style="fill:#323c41;fill-opacity:1;stroke:none" />
  </g>
  <g
     id="g19"
     style="filter:url(#filter1_dd);fill:#3a454a;fill-opacity:1;stroke:none"
     transform="matrix(0.94120763,0,0,0.94120763,35.762712,35.762712)">
    <path
       id="path17"
       d="M 125.627,105.787 93.6269,127.12 c -1.0885,0.712 -2.3975,1.007 -3.6861,0.831 -1.2885,-0.177 -2.4701,-0.812 -3.3273,-1.791 L 52.5069,86.587 33.0669,63.9737 21.3335,50.3737 9.38688,36.507 C 8.4983,35.487 7.25707,34.8405 5.91195,34.6971 4.56683,34.5537 3.2172,34.924 2.13354,35.7337 l 21.33336,-16 c 0.9242,-0.6904 2.0464,-1.0644 3.2,-1.0667 0.6815,-0.0056 1.3574,0.1234 1.9889,0.3797 0.6315,0.2562 1.2062,0.6347 1.6911,1.1136 l 0.3733,0.3734 21.7867,20.88 23.5466,22.5866 19.92,19.0934 22.6405,21.7063 0.373,0.374 c 0.485,0.479 1.059,0.857 1.691,1.113 0.631,0.257 1.307,0.386 1.989,0.38 1.051,0.003 2.081,-0.303 2.96,-0.88 z"
       inkscape:connector-curvature="0"
       style="fill:#3a454a;fill-opacity:1;stroke:none" />
  </g>
  <g
     id="g23"
     style="filter:url(#filter2_dd);fill:#445055;fill-opacity:1;stroke:none"
     transform="matrix(0.94120763,0,0,0.94120763,35.762712,35.762712)">
    <path
       id="path21"
       d="m 128,26.6669 v 74.6671 c 0.001,0.88 -0.216,1.747 -0.63,2.523 -0.413,0.777 -1.013,1.44 -1.744,1.93 L 93.6263,127.12 c 0.7312,-0.49 1.3302,-1.153 1.7442,-1.929 0.4139,-0.777 0.63,-1.644 0.6292,-2.524 L 95.973,83.0936 95.9463,44.9336 95.9197,5.33358 C 95.9239,4.45279 95.7092,3.58475 95.2949,2.80744 94.8807,2.03013 94.2798,1.36791 93.5463,0.880249 L 125.626,22.2136 c 0.73,0.4919 1.327,1.155 1.741,1.9314 0.414,0.7763 0.631,1.6422 0.633,2.5219 z"
       inkscape:connector-curvature="0"
       style="fill:#445055;fill-opacity:1;stroke:none" />
  </g>
</svg>
