<?xml version="1.0" encoding="UTF-8" standalone="no"?>
<svg
   xmlns:dc="http://purl.org/dc/elements/1.1/"
   xmlns:cc="http://creativecommons.org/ns#"
   xmlns:rdf="http://www.w3.org/1999/02/22-rdf-syntax-ns#"
   xmlns:svg="http://www.w3.org/2000/svg"
   xmlns="http://www.w3.org/2000/svg"
   xmlns:sodipodi="http://sodipodi.sourceforge.net/DTD/sodipodi-0.dtd"
   xmlns:inkscape="http://www.inkscape.org/namespaces/inkscape"
   width="192"
   height="192"
   viewBox="0 0 192 192"
   version="1.1"
   id="svg843"
   sodipodi:docname="sublime-text.svg"
   inkscape:version="0.92.4 (5da689c313, 2019-01-14)">
  <metadata
     id="metadata849">
    <rdf:RDF>
      <cc:Work
         rdf:about="">
        <dc:format>image/svg+xml</dc:format>
        <dc:type
           rdf:resource="http://purl.org/dc/dcmitype/StillImage" />
        <dc:title></dc:title>
      </cc:Work>
    </rdf:RDF>
  </metadata>
  <defs
     id="defs847">
    <linearGradient
       gradientTransform="matrix(0.34389746,0,0,0.34389746,10.404305,9.9362032)"
       id="a"
       gradientUnits="userSpaceOnUse"
       x1="136.17799"
       x2="372.681"
       y1="369.638"
       y2="287.81">
      <stop
         offset=".233"
         stop-color="#f89822"
         id="stop1474" />
      <stop
         offset="1"
         stop-color="#c27818"
         id="stop1476" />
    </linearGradient>
    <linearGradient
       y2="287.81"
       y1="369.638"
       x2="372.681"
       x1="136.17799"
       gradientUnits="userSpaceOnUse"
       id="2b3339"
       gradientTransform="matrix(0.34389746,0,0,0.34389746,10.404305,9.9362032)">
      <stop
         id="stop1469"
         stop-color="#f89822"
         offset=".233" />
      <stop
         id="stop1471"
         stop-color="#c27818"
         offset="1" />
    </linearGradient>
    <linearGradient
       gradientTransform="matrix(0.34389746,0,0,0.34389746,10.404305,9.9362032)"
       id="a-0"
       gradientUnits="userSpaceOnUse"
       x1="136.17799"
       x2="372.681"
       y1="369.638"
       y2="287.81">
      <stop
         offset=".233"
         stop-color="#f89822"
         id="stop2" />
      <stop
         offset="1"
         stop-color="#c27818"
         id="stop4" />
    </linearGradient>
  </defs>
  <sodipodi:namedview
     pagecolor="#ffffff"
     bordercolor="#666666"
     borderopacity="1"
     objecttolerance="10"
     gridtolerance="10"
     guidetolerance="10"
     inkscape:pageopacity="0"
     inkscape:pageshadow="2"
     inkscape:window-width="2560"
     inkscape:window-height="1377"
     id="namedview845"
     showgrid="false"
     inkscape:zoom="3.4766083"
     inkscape:cx="54.906057"
     inkscape:cy="141.05992"
     inkscape:window-x="1912"
     inkscape:window-y="-8"
     inkscape:window-maximized="1"
     inkscape:current-layer="svg843" />
  <rect
     style="fill:#a7c080;fill-rule:evenodd;stroke:none;fill-opacity:1"
     id="rect831"
     rx="10"
     y="19.5"
     x="19.5"
     height="153"
     width="153" />
  <path
     inkscape:connector-curvature="0"
     style="fill:#2b3339;stroke-width:0.34389743;fill-opacity:1"
     d="M 54.973415,65.475639 135.37664,39.958448 c 0,0 5.70869,-2.991909 4.33311,2.544841 l 0.20634,24.588668 c 0,0 0.9973,3.610918 -3.95483,4.505051 l -32.67025,10.213755 z"
     id="path9" />
  <path
     inkscape:connector-curvature="0"
     style="fill:#323c41;stroke-width:0.34389743;fill-opacity:1"
     d="m 54.973415,65.475639 c 0,0 -3.163857,0.756571 -2.235335,6.15576 l -0.171947,23.694534 c 0,0 -0.27512,2.991905 5.399189,4.195553 l 79.681048,25.654744 c 0,0 2.68239,1.06607 2.37289,-2.23533 l 0.0344,-26.411319 c 0,0 0.75657,-2.716799 -4.19554,-4.505056 L 103.291,81.810763 Z"
     id="path11" />
  <path
     inkscape:connector-curvature="0"
     style="fill:#2b3339;stroke-width:0.34389743;fill-opacity:1"
     d="m 90.085341,109.8384 -33.908286,10.35132 c 0,0 -4.092379,0.13756 -3.610922,7.80648 0.481456,7.6689 -0.03439,23.10991 -0.03439,23.10991 0,0 0.343898,2.85434 4.264328,1.20364 L 137.1993,126.65499 c 0,0 2.85435,-0.72218 0.44707,-1.51315 -2.40729,-0.75657 -47.561029,-15.30344 -47.561029,-15.30344 z"
     id="path13" />
</svg>
