<?xml version="1.0" encoding="UTF-8" standalone="no"?>
<svg
   xmlns:dc="http://purl.org/dc/elements/1.1/"
   xmlns:cc="http://creativecommons.org/ns#"
   xmlns:rdf="http://www.w3.org/1999/02/22-rdf-syntax-ns#"
   xmlns:svg="http://www.w3.org/2000/svg"
   xmlns="http://www.w3.org/2000/svg"
   xmlns:sodipodi="http://sodipodi.sourceforge.net/DTD/sodipodi-0.dtd"
   xmlns:inkscape="http://www.inkscape.org/namespaces/inkscape"
   width="192"
   height="192"
   version="1.1"
   viewBox="0 0 192 192"
   id="svg14"
   sodipodi:docname="icon-obsidian.svg"
   inkscape:version="0.92.4 (5da689c313, 2019-01-14)">
  <metadata
     id="metadata20">
    <rdf:RDF>
      <cc:Work
         rdf:about="">
        <dc:format>image/svg+xml</dc:format>
        <dc:type
           rdf:resource="http://purl.org/dc/dcmitype/StillImage" />
      </cc:Work>
    </rdf:RDF>
  </metadata>
  <defs
     id="defs18">
    <linearGradient
       id="a"
       x1="82.849998"
       y1="30.41"
       x2="51.259998"
       y2="105.9"
       gradientTransform="matrix(1,0,0,-1,-22.41,110.97)"
       gradientUnits="userSpaceOnUse">
      <stop
         offset="0"
         stop-color="#6c56cc"
         id="stop2" />
      <stop
         offset="1"
         stop-color="#9785e5"
         id="stop4" />
    </linearGradient>
  </defs>
  <sodipodi:namedview
     pagecolor="#ffffff"
     bordercolor="#666666"
     borderopacity="1"
     objecttolerance="10"
     gridtolerance="10"
     guidetolerance="10"
     inkscape:pageopacity="0"
     inkscape:pageshadow="2"
     inkscape:window-width="1920"
     inkscape:window-height="1001"
     id="namedview16"
     showgrid="false"
     inkscape:zoom="4.9166668"
     inkscape:cx="58.655013"
     inkscape:cy="86.261509"
     inkscape:window-x="-9"
     inkscape:window-y="-9"
     inkscape:window-maximized="1"
     inkscape:current-layer="svg14" />
  <rect
     style="opacity:1;fill:#e67e80;stroke:none;fill-opacity:1"
     id="rect2"
     rx="10"
     height="153"
     width="153"
     y="19.5"
     x="19.5" />
  <polygon
     transform="matrix(1.2437288,0,0,1.2437288,56.822543,33.81356)"
     style="fill:#2b3339;fill-opacity:1"
     points="19.57,90.47 47.35,100 52.44,89.8 63,26.39 44.61,0 12.91,17.52 0,45.45 "
     id="polygon9" />
  <polygon
     transform="matrix(1.2437288,0,0,1.2437288,56.822543,33.81356)"
     style="fill:#3a454a;fill-opacity:1"
     points="63,26.39 43.44,14.41 16.43,35.7 47.35,100 52.44,89.8 "
     id="polygon11" />
  <polygon
     transform="matrix(1.2437288,0,0,1.2437288,56.822543,33.81356)"
     style="fill:#445055;fill-opacity:1"
     points="63,26.39 44.61,0 43.44,14.41 "
     id="polygon13" />
  <polygon
     transform="matrix(1.2437288,0,0,1.2437288,56.822543,33.81356)"
     style="fill:#323c41;fill-opacity:1"
     points="12.91,17.52 16.43,35.7 43.44,14.41 44.61,0 "
     id="polygon15" />
  <polygon
     transform="matrix(1.2437288,0,0,1.2437288,56.822543,33.81356)"
     style="fill:#323c41;fill-opacity:1"
     points="19.57,90.47 47.35,100 16.43,35.7 "
     id="polygon17" />
</svg>
