<?xml version="1.0" encoding="UTF-8" standalone="no"?>
<svg
   xmlns:dc="http://purl.org/dc/elements/1.1/"
   xmlns:cc="http://creativecommons.org/ns#"
   xmlns:rdf="http://www.w3.org/1999/02/22-rdf-syntax-ns#"
   xmlns:svg="http://www.w3.org/2000/svg"
   xmlns="http://www.w3.org/2000/svg"
   xmlns:sodipodi="http://sodipodi.sourceforge.net/DTD/sodipodi-0.dtd"
   xmlns:inkscape="http://www.inkscape.org/namespaces/inkscape"
   width="192"
   height="192"
   version="1.1"
   viewBox="0 0 192 192"
   id="svg14"
   sodipodi:docname="icon-element.svg"
   inkscape:version="0.92.4 (5da689c313, 2019-01-14)">
  <metadata
     id="metadata20">
    <rdf:RDF>
      <cc:Work
         rdf:about="">
        <dc:format>image/svg+xml</dc:format>
        <dc:type
           rdf:resource="http://purl.org/dc/dcmitype/StillImage" />
      </cc:Work>
    </rdf:RDF>
  </metadata>
  <defs
     id="defs18" />
  <sodipodi:namedview
     pagecolor="#ffffff"
     bordercolor="#666666"
     borderopacity="1"
     objecttolerance="10"
     gridtolerance="10"
     guidetolerance="10"
     inkscape:pageopacity="0"
     inkscape:pageshadow="2"
     inkscape:window-width="1920"
     inkscape:window-height="1001"
     id="namedview16"
     showgrid="false"
     inkscape:zoom="2.4583334"
     inkscape:cx="65.543897"
     inkscape:cy="98.582718"
     inkscape:window-x="-9"
     inkscape:window-y="-9"
     inkscape:window-maximized="1"
     inkscape:current-layer="svg14" />
  <rect
     style="opacity:1;fill:#e67e80;stroke:none;fill-opacity:1"
     id="rect2"
     rx="10"
     height="153"
     width="153"
     y="19.5"
     x="19.5" />
  <path
     d="m 96,152.81356 c 31.37721,0 56.81356,-25.43635 56.81356,-56.81356 0,-31.377215 -25.43635,-56.813557 -56.81356,-56.813557 -31.377215,0 -56.813557,25.436342 -56.813557,56.813557 0,31.37721 25.436342,56.81356 56.813557,56.81356 z"
     id="path2"
     inkscape:connector-curvature="0"
     style="clip-rule:evenodd;fill:#2b3339;fill-rule:evenodd;stroke-width:1.0145278;fill-opacity:1" />
  <path
     d="m 85.612757,65.658517 c 0,-2.29334 1.862876,-4.152361 4.160984,-4.152361 15.575539,0 28.202049,12.600232 28.202049,28.143508 0,2.293239 -1.86298,4.152361 -4.16099,4.152361 -2.2981,0 -4.16098,-1.859122 -4.16098,-4.152361 0,-10.956697 -8.90066,-19.838786 -19.880079,-19.838786 -2.298108,0 -4.160984,-1.859122 -4.160984,-4.152361 z"
     id="path4"
     inkscape:connector-curvature="0"
     style="clip-rule:evenodd;fill:#e67e80;fill-rule:evenodd;stroke-width:1.0145278;fill-opacity:1" />
  <path
     d="m 126.33296,85.497304 c 2.29801,0 4.16088,1.85902 4.16088,4.15236 0,15.543176 -12.6264,28.143506 -28.20204,28.143506 -2.29801,0 -4.160987,-1.85912 -4.160987,-4.15236 0,-2.29334 1.862977,-4.15236 4.160987,-4.15236 10.97952,0 19.88018,-8.88219 19.88018,-19.838786 0,-2.29334 1.86287,-4.15236 4.16098,-4.15236 z"
     id="path6"
     inkscape:connector-curvature="0"
     style="clip-rule:evenodd;fill:#e67e80;fill-rule:evenodd;stroke-width:1.0145278;fill-opacity:1" />
  <path
     d="m 106.45278,126.34148 c 0,2.29334 -1.86298,4.15236 -4.16098,4.15236 -15.575541,0 -28.20205,-12.60033 -28.20205,-28.1435 0,-2.29334 1.862978,-4.152366 4.160984,-4.152366 2.298007,0 4.160985,1.859026 4.160985,4.152366 0,10.95669 8.900655,19.83878 19.880081,19.83878 2.298,0 4.16098,1.85912 4.16098,4.15236 z"
     id="path8"
     inkscape:connector-curvature="0"
     style="clip-rule:evenodd;fill:#e67e80;fill-rule:evenodd;stroke-width:1.0145278;fill-opacity:1" />
  <path
     d="m 65.667039,106.5027 c -2.298007,0 -4.160883,-1.85902 -4.160883,-4.15236 -1.01e-4,-15.54318 12.626407,-28.143513 28.202047,-28.143513 2.298007,0 4.160984,1.859122 4.160984,4.152361 0,2.29334 -1.862977,4.15236 -4.160984,4.15236 -10.979524,0 -19.88018,8.882191 -19.88018,19.838792 0,2.29334 -1.862876,4.15236 -4.160984,4.15236 z"
     id="path10"
     inkscape:connector-curvature="0"
     style="clip-rule:evenodd;fill:#e67e80;fill-rule:evenodd;stroke-width:1.0145278;fill-opacity:1" />
</svg>
