<?xml version="1.0" encoding="UTF-8" standalone="no"?>
<svg
   xmlns:dc="http://purl.org/dc/elements/1.1/"
   xmlns:cc="http://creativecommons.org/ns#"
   xmlns:rdf="http://www.w3.org/1999/02/22-rdf-syntax-ns#"
   xmlns:svg="http://www.w3.org/2000/svg"
   xmlns="http://www.w3.org/2000/svg"
   xmlns:sodipodi="http://sodipodi.sourceforge.net/DTD/sodipodi-0.dtd"
   xmlns:inkscape="http://www.inkscape.org/namespaces/inkscape"
   width="192"
   height="192"
   version="1.1"
   viewBox="0 0 192 192"
   id="svg14"
   sodipodi:docname="icon-iterm2.svg"
   inkscape:version="0.92.4 (5da689c313, 2019-01-14)">
  <metadata
     id="metadata20">
    <rdf:RDF>
      <cc:Work
         rdf:about="">
        <dc:format>image/svg+xml</dc:format>
        <dc:type
           rdf:resource="http://purl.org/dc/dcmitype/StillImage" />
        <dc:title></dc:title>
      </cc:Work>
    </rdf:RDF>
  </metadata>
  <defs
     id="defs18">
    <filter
       style="color-interpolation-filters:sRGB"
       id="filter0_d"
       x="78"
       y="86"
       width="868"
       height="868"
       filterUnits="userSpaceOnUse">
      <feFlood
         flood-opacity="0"
         result="BackgroundImageFix"
         id="feFlood14" />
      <feColorMatrix
         in="SourceAlpha"
         type="matrix"
         values="0 0 0 0 0 0 0 0 0 0 0 0 0 0 0 0 0 0 127 0"
         id="feColorMatrix16" />
      <feMorphology
         radius="2"
         operator="dilate"
         in="SourceAlpha"
         result="effect1_dropShadow"
         id="feMorphology18" />
      <feOffset
         dy="8"
         id="feOffset20" />
      <feGaussianBlur
         stdDeviation="10"
         id="feGaussianBlur22" />
      <feColorMatrix
         type="matrix"
         values="0 0 0 0 0 0 0 0 0 0 0 0 0 0 0 0 0 0 0.25 0"
         id="feColorMatrix24" />
      <feBlend
         mode="normal"
         in2="BackgroundImageFix"
         result="effect1_dropShadow"
         id="feBlend26" />
      <feBlend
         mode="normal"
         in="SourceGraphic"
         in2="effect1_dropShadow"
         result="shape"
         id="feBlend28" />
    </filter>
    <linearGradient
       id="paint0_linear"
       x1="512"
       y1="100"
       x2="512"
       y2="924"
       gradientUnits="userSpaceOnUse">
      <stop
         stop-color="#D4E6E8"
         id="stop31" />
      <stop
         offset="1"
         stop-color="#767573"
         id="stop33" />
    </linearGradient>
  </defs>
  <sodipodi:namedview
     pagecolor="#ffffff"
     bordercolor="#666666"
     borderopacity="1"
     objecttolerance="10"
     gridtolerance="10"
     guidetolerance="10"
     inkscape:pageopacity="0"
     inkscape:pageshadow="2"
     inkscape:window-width="2560"
     inkscape:window-height="1377"
     id="namedview16"
     showgrid="false"
     inkscape:zoom="1.2291667"
     inkscape:cx="-89.287454"
     inkscape:cy="218.2805"
     inkscape:window-x="1912"
     inkscape:window-y="-8"
     inkscape:window-maximized="1"
     inkscape:current-layer="svg14" />
  <rect
     style="opacity:1;fill:#7fbbb3;stroke:none;fill-opacity:1"
     id="rect2"
     rx="10"
     height="153"
     width="153"
     y="19.5"
     x="19.5" />
  <rect
     x="106.87053"
     y="49.412361"
     width="46.587692"
     height="93.175285"
     id="rect10"
     style="fill:#445055;fill-opacity:1;stroke-width:0.52266675" />
  <path
     d="m 58.295972,126.69021 c -2.43615,-0.20645 -4.719681,-0.55089 -6.851116,-1.03331 -2.055648,-0.55141 -3.958678,-1.1368 -5.709612,-1.75668 -1.674624,-0.62041 -3.158998,-1.2058 -4.453121,-1.75721 -1.217814,-0.61988 -2.131435,-1.1023 -2.740342,-1.44674 l 4.909932,-9.0944 c 0.532597,0.34443 1.446219,0.82633 2.740342,1.44674 1.294123,0.61988 2.740342,1.27426 4.339179,1.96366 1.674625,0.61988 3.387404,1.17129 5.138338,1.65319 1.750933,0.48242 3.387403,0.7239 4.909931,0.7239 7.612642,0 11.418701,-2.85951 11.418701,-8.57801 0,-1.37827 -0.26656,-2.51507 -0.79968,-3.4104 -0.456288,-0.89585 -1.179659,-1.65372 -2.169067,-2.2736 -0.913621,-0.6894 -2.055648,-1.27479 -3.425558,-1.75721 -1.294123,-0.55089 -2.778497,-1.1023 -4.453644,-1.653193 -3.197152,-1.102827 -6.051436,-2.239627 -8.563895,-3.410923 -2.435627,-1.239766 -4.52943,-2.618038 -6.279841,-4.133772 -1.750934,-1.515734 -3.083211,-3.237921 -3.996833,-5.167084 -0.913099,-1.929163 -1.36991,-4.134294 -1.36991,-6.614348 0,-1.929163 0.418656,-3.789334 1.255969,-5.581036 0.837312,-1.791179 2.016971,-3.375905 3.539499,-4.753654 1.522528,-1.446742 3.349771,-2.652534 5.481207,-3.617377 2.131435,-1.033312 4.491275,-1.756683 7.079521,-2.170112 V 49.41236 h 9.363053 v 14.649305 c 1.979339,0.206976 3.882369,0.516917 5.709089,0.930346 1.827243,0.41343 3.463713,0.861355 4.909932,1.343254 1.446741,0.482421 2.664555,0.964843 3.653963,1.447264 1.065718,0.41343 1.827243,0.723371 2.284054,0.929825 l -4.567585,8.474519 c -0.608907,-0.275446 -1.484374,-0.619883 -2.6264,-1.033313 -1.065718,-0.482421 -2.283532,-0.964842 -3.653964,-1.446741 -1.36991,-0.482422 -2.854283,-0.895851 -4.453121,-1.240288 -1.598315,-0.344438 -3.197153,-0.516918 -4.795468,-0.516918 -2.588246,0 -4.910454,0.482422 -6.96558,1.446742 -1.979339,0.895851 -2.968747,2.44608 -2.968747,4.650689 0,1.378272 0.26656,2.61856 0.799157,3.720865 0.608907,1.033312 1.446219,1.963659 2.511937,2.789995 1.142027,0.826859 2.512459,1.619222 4.110774,2.377088 1.674625,0.688875 3.578177,1.378273 5.709612,2.067147 2.816129,1.033313 5.328588,2.101121 7.53581,3.203948 2.207744,1.102304 4.072619,2.34207 5.595148,3.720342 1.522528,1.37775 2.664555,2.962475 3.425558,4.753651 0.837312,1.79171 1.255968,3.89283 1.255968,6.30441 0,2.06715 -0.380501,4.06478 -1.141504,5.99394 -0.685216,1.92917 -1.789089,3.72087 -3.311617,5.37406 -1.446219,1.65372 -3.272939,3.10046 -5.480684,4.34075 -2.131435,1.1713 -4.643894,2.03265 -7.536332,2.58354 v 15.27598 h -9.363053 z"
     id="path12"
     inkscape:connector-curvature="0"
     style="fill:#2b3339;stroke-width:0.52266675;fill-opacity:1" />
</svg>
