<?xml version="1.0" encoding="UTF-8" standalone="no"?>
<svg
   xmlns:dc="http://purl.org/dc/elements/1.1/"
   xmlns:cc="http://creativecommons.org/ns#"
   xmlns:rdf="http://www.w3.org/1999/02/22-rdf-syntax-ns#"
   xmlns:svg="http://www.w3.org/2000/svg"
   xmlns="http://www.w3.org/2000/svg"
   xmlns:sodipodi="http://sodipodi.sourceforge.net/DTD/sodipodi-0.dtd"
   xmlns:inkscape="http://www.inkscape.org/namespaces/inkscape"
   width="192"
   height="192"
   viewBox="0 0 192 192"
   version="1.1"
   id="svg14"
   sodipodi:docname="icon-text-mate.svg"
   inkscape:version="0.92.4 (5da689c313, 2019-01-14)">
  <metadata
     id="metadata20">
    <rdf:RDF>
      <cc:Work
         rdf:about="">
        <dc:format>image/svg+xml</dc:format>
        <dc:type
           rdf:resource="http://purl.org/dc/dcmitype/StillImage" />
        <dc:title></dc:title>
      </cc:Work>
    </rdf:RDF>
  </metadata>
  <defs
     id="defs18" />
  <sodipodi:namedview
     pagecolor="#ffffff"
     bordercolor="#666666"
     borderopacity="1"
     objecttolerance="10"
     gridtolerance="10"
     guidetolerance="10"
     inkscape:pageopacity="0"
     inkscape:pageshadow="2"
     inkscape:window-width="2560"
     inkscape:window-height="1377"
     id="namedview16"
     showgrid="false"
     inkscape:zoom="2.4583333"
     inkscape:cx="42.985321"
     inkscape:cy="108.79819"
     inkscape:window-x="1912"
     inkscape:window-y="-8"
     inkscape:window-maximized="1"
     inkscape:current-layer="svg14" />
  <rect
     style="fill:#a7c080;fill-rule:evenodd;stroke:none;fill-opacity:1"
     id="rect2"
     rx="10"
     y="19.5"
     x="19.5"
     height="153"
     width="153" />
  <path
     inkscape:connector-curvature="0"
     d="m 94.586494,83.863795 c -1.360601,0.365889 -3.420823,-0.270909 -4.7642,0.986011 -7.58e-4,-0.0015 -0.0015,-0.0029 -0.0023,-0.0044 -8.149081,-17.249299 -15.533432,-45.60425 -5.869032,-53.016484 15.509249,5.593738 12.601149,42.84505 10.635532,52.034873 z m 7.228886,1.901369 c 0.43857,0.0961 1.02588,0.276793 1.60011,0.607631 12.98553,-8.929208 21.94062,-23.515846 26.89648,-37.587392 0.58607,-6.39868 -0.31906,-9.234746 -2.29864,-9.50383 -14.32265,0.771095 -28.097758,39.40178 -26.19795,46.483591 z m -5.737015,-2.657165 c -0.09373,0.357089 -0.02046,0.484113 0.228755,0.650253 1.934905,1.28994 3.73374,1.430115 3.91899,0.973835 1.31302,-11.662757 5.22798,-22.912665 12.15034,-33.685416 1.33081,-11.587873 -2.43383,-18.037657 -4.65007,-19.193512 -2.41244,-1.258194 -8.510307,4.376377 -11.132635,16.932869 0.874873,8.459587 2.632579,19.533124 -0.51538,34.321971 z M 78.295583,50.869058 c -6.20536,-9.092395 -14.45903,-12.689786 -16.242881,-11.055284 -1.966674,1.802008 -3.260855,9.30201 6.305625,25.494954 5.96763,5.210819 14.622678,14.073587 19.327913,21.315213 0.238116,-0.557963 0.712402,-1.010848 1.358049,-1.387547 C 84.934715,77.239446 81.469294,66.348122 78.295583,50.869058 Z m 29.418877,41.848796 c 0.0681,0.55884 0.17955,1.992776 -0.2518,3.244511 9.77443,3.713548 33.21864,2.253322 40.62446,0.47533 7.51295,-1.803714 13.746,-6.714877 12.40642,-9.766136 -1.12879,-2.571156 -3.62168,-3.795254 -6.28415,-4.376391 -18.92012,-0.646102 -34.55526,3.760578 -46.49493,10.422686 z m -1.04151,-3.55753 c 0.39797,0.535416 0.73642,1.135436 0.93429,1.711082 11.72228,-6.395132 25.03888,-9.629586 38.39508,-10.211283 6.58221,-5.097902 16.16919,-14.952112 2.12027,-15.129948 -3.05378,-0.03866 -8.22161,1.580598 -13.2677,3.453416 -7.62637,7.176097 -16.3305,14.737786 -28.18194,20.176733 z m 30.04862,-24.266239 c 2.88106,-3.710107 5.25964,-7.840849 5.95413,-13.396627 0.51699,-4.136011 -3.30219,-5.098985 -11.24377,-0.946524 -5.6898,15.571167 -15.42327,28.138978 -27.24707,36.384182 0.49796,0.135279 0.93753,0.714093 1.19336,0.899687 7.79158,-1.874653 23.92459,-15.238044 31.34335,-22.940718 z m -39.194309,41.070885 -1.888942,0.55558 c -1.522976,6.36109 -2.267767,15.84554 -2.742654,26.41334 1.997084,21.42422 8.684375,27.81321 11.097755,27.36326 5.29892,-0.59603 6.54525,-13.05928 5.65396,-18.44027 -2.13333,-12.87971 -6.48346,-28.07318 -12.120119,-35.89191 z m -7.776688,-1.81213 c -0.254614,-0.14098 -0.506286,-0.28671 -0.75416,-0.43875 -18.386353,6.31862 -42.666641,34.01476 -36.24087,42.31955 8.345508,8.40522 34.841482,-27.50744 36.99503,-41.8808 z m -1.379112,-0.84279 c -1.129858,-0.7696 -2.157967,-1.70587 -2.985838,-2.97021 l -1.379673,0.15675 c -8.441086,3.81826 -17.561694,6.34688 -26.60853,8.38159 -9.076116,5.02945 -20.550728,14.58421 -18.212986,19.33759 2.598913,5.28448 13.972436,0.75813 18.422821,-1.26624 9.666106,-10.88291 19.940003,-19.61027 30.764206,-23.63948 z m 22.964089,38.30661 c 3.31693,4.97441 10.11565,13.83162 15.20714,11.60124 5.55913,-2.43523 0.15618,-15.62764 -3.23865,-22.42431 -7.43494,-6.98372 -14.43743,-14.79852 -19.89814,-25.57648 -0.55686,-0.46534 -1.1237,-0.96363 -1.4897,-1.35085 -0.43963,1.03436 -2.388798,1.66177 -2.388798,1.66177 l 0.06616,0.57386 c 7.211758,12.11505 9.606408,25.07222 11.741928,35.51477 z m 19.69385,-28.39841 c 7.72732,2.10121 24.47991,6.00499 27.95404,-1.13073 0.98966,-2.0327 -3.49025,-8.59921 -19.37048,-12.91195 -13.23555,1.36149 -23.1681,1.52023 -32.83173,-1.734272 -0.17571,1.215945 -1.65168,2.279968 -0.71061,3.274532 9.79083,2.80073 18.4546,7.65511 24.95878,12.50242 z m 16.03152,24.36807 c 6.02422,-6.74022 -22.39523,-31.21253 -42.45048,-35.54574 -0.15022,0.18572 -0.36069,0.37657 -0.60352,0.5835 9.30136,20.79509 32.42765,40.45936 43.054,34.96224 z m -72.888333,-1.13411 c -1.596143,6.92721 -3.310434,19.48565 1.293795,21.42153 5.633436,2.36861 12.263201,-11.81541 15.670705,-22.72876 0.580054,-11.61472 1.253994,-22.59027 2.709111,-28.24689 l -2.879206,-0.97688 -0.634895,0.56435 c -1.985024,8.37536 -9.206965,20.43463 -16.15951,29.96665 z M 41.780878,93.575788 c -5.58315,0.901993 -10.751306,4.851532 -10.443679,7.405452 0.45241,3.75617 9.383757,8.30978 24.904365,6.54273 13.247886,-2.3985 22.734394,-5.7288 28.606059,-8.023195 0.528836,-1.05401 0.600632,-2.310662 0.02911,-3.792214 C 74.599374,95.610871 67.463642,89.42657 41.780875,93.575788 Z M 67.305449,66.452387 c -8.277662,-6.462383 -18.459942,-10.957996 -24.05891,-8.954092 -6.38215,2.28421 2.350079,12.377798 11.926346,19.659026 8.936042,5.030462 20.976401,10.441516 30.538502,12.827281 0.326894,-0.509533 1.300604,-1.013231 1.664639,-1.821278 -0.0091,-0.0018 -0.0214,-5.06e-4 -0.02907,-0.0035 C 86.2353,85.1985 76.432497,73.456547 67.305449,66.452382 Z m 17.203444,28.22668 c -0.0845,-1.01886 0.08667,-1.956041 0.648921,-2.768246 l -2.91553,-1.980348 C 74.971932,88.015681 64.989162,83.602167 56.875498,79.747956 c -20.977936,-4.243101 -35.102972,2.865571 -15.74608,12.27582 23.245792,-3.57672 33.74899,1.701605 43.379475,2.655291 z"
     id="path2"
     style="stroke-width:0.25264016;fill:#2b3339;fill-opacity:1" />
</svg>
