<?xml version="1.0" encoding="UTF-8" standalone="no"?>
<svg
   xmlns:dc="http://purl.org/dc/elements/1.1/"
   xmlns:cc="http://creativecommons.org/ns#"
   xmlns:rdf="http://www.w3.org/1999/02/22-rdf-syntax-ns#"
   xmlns:svg="http://www.w3.org/2000/svg"
   xmlns="http://www.w3.org/2000/svg"
   xmlns:sodipodi="http://sodipodi.sourceforge.net/DTD/sodipodi-0.dtd"
   xmlns:inkscape="http://www.inkscape.org/namespaces/inkscape"
   width="192"
   height="192"
   version="1.1"
   viewBox="0 0 192 192"
   id="svg14"
   sodipodi:docname="icon-vim.svg"
   inkscape:version="0.92.4 (5da689c313, 2019-01-14)">
  <metadata
     id="metadata20">
    <rdf:RDF>
      <cc:Work
         rdf:about="">
        <dc:format>image/svg+xml</dc:format>
        <dc:type
           rdf:resource="http://purl.org/dc/dcmitype/StillImage" />
        <dc:title></dc:title>
      </cc:Work>
    </rdf:RDF>
  </metadata>
  <defs
     id="defs18">
    <inkscape:perspective
       id="perspective10"
       inkscape:persp3d-origin="372.04724 : 350.78739 : 1"
       inkscape:vp_z="744.09448 : 526.18109 : 1"
       inkscape:vp_y="0 : 1000 : 0"
       inkscape:vp_x="0 : 526.18109 : 1"
       sodipodi:type="inkscape:persp3d" />
    <inkscape:perspective
       sodipodi:type="inkscape:persp3d"
       inkscape:vp_x="0 : 0.5 : 1"
       inkscape:vp_y="0 : 1000 : 0"
       inkscape:vp_z="1 : 0.5 : 1"
       inkscape:persp3d-origin="0.5 : 0.33333333 : 1"
       id="perspective2884" />
  </defs>
  <sodipodi:namedview
     pagecolor="#ffffff"
     bordercolor="#666666"
     borderopacity="1"
     objecttolerance="10"
     gridtolerance="10"
     guidetolerance="10"
     inkscape:pageopacity="0"
     inkscape:pageshadow="2"
     inkscape:window-width="2560"
     inkscape:window-height="1377"
     id="namedview16"
     showgrid="false"
     inkscape:zoom="1.2291667"
     inkscape:cx="-156.5517"
     inkscape:cy="225.7666"
     inkscape:window-x="1912"
     inkscape:window-y="-8"
     inkscape:window-maximized="1"
     inkscape:current-layer="svg14" />
  <rect
     style="opacity:1;fill:#a7c080;stroke:none;fill-opacity:1"
     id="rect2"
     rx="10"
     height="153"
     width="153"
     y="19.5"
     x="19.5" />
  <path
     inkscape:connector-curvature="0"
     style="fill:#404d44;fill-opacity:1;stroke:#2b3339;stroke-width:2.69640684;stroke-linecap:butt;stroke-linejoin:miter;stroke-miterlimit:4;stroke-dasharray:none;stroke-opacity:1"
     d="M 95.582436,31.367891 30.868682,96.852055 95.197238,161.18061 159.911,96.081654 Z"
     id="path2890" />
  <path
     inkscape:connector-curvature="0"
     style="fill:#53605c;fill-opacity:1;stroke:#2b3339;stroke-width:2.69640684;stroke-linecap:butt;stroke-linejoin:miter;stroke-miterlimit:4;stroke-dasharray:none;stroke-opacity:1"
     d="m 40.69275,37.629276 -2.696406,2.696407 v 10.400429 l 2.937157,2.840854 3.90016,0.09631 0.0963,90.666674 3.852009,3.85204 H 60.723201 L 156.25304,51.11131 V 41.096084 l -2.69641,-2.696407 -43.14251,-0.385197 -2.6964,3.852005 v 8.474424 l 2.6964,3.466808 h 3.46681 l -33.512481,32.356887 0.337053,-32.212435 3.852006,-5e-6 3.129757,-3.226057 V 42.251683 L 84.220457,38.399672 40.69275,37.629271 Z"
     id="path3664"
     sodipodi:nodetypes="cccccccccccccccccccccccc" />
  <path
     inkscape:connector-curvature="0"
     style="fill:#53605c;fill-opacity:1;stroke:#2b3339;stroke-width:2.69640684;stroke-linecap:butt;stroke-linejoin:miter;stroke-miterlimit:4;stroke-dasharray:none;stroke-opacity:1"
     d="m 100.37249,100.36228 2.31121,-1.926005 6.54842,0.192604 2.1186,2.118601 -2.3112,6.54842 -1.92601,1.7334 -6.8208,-0.0798 -1.846221,-2.23142 z"
     id="path3666"
     sodipodi:nodetypes="ccccccccc" />
  <path
     inkscape:connector-curvature="0"
     style="fill:#53605c;fill-opacity:1;stroke:#2b3339;stroke-width:2.69640684;stroke-linecap:butt;stroke-linejoin:miter;stroke-miterlimit:4;stroke-dasharray:none;stroke-opacity:1"
     d="m 92.283274,112.68872 15.408036,0.19259 -8.089217,24.26768 h 2.889007 l -1.7334,4.81498 -14.445042,-0.19258 7.896622,-23.30466 -3.852011,0.1926 z"
     id="path3668" />
  <path
     inkscape:connector-curvature="0"
     style="fill:#53605c;fill-opacity:1;stroke:#2b3339;stroke-width:2.69640684;stroke-linecap:butt;stroke-linejoin:miter;stroke-miterlimit:4;stroke-dasharray:none;stroke-opacity:1"
     d="m 111.35072,112.88131 -2.00578,5.22358 h 3.68278 l -8.22541,23.85908 h 12.71163 l 1.83655,-4.70216 -3.29758,-0.21598 4.54264,-14.14929 8.08922,-0.1926 -5.97062,18.87482 12.48599,0.19263 1.57243,-4.45317 -3.00041,-0.0881 4.92783,-14.33361 h 6.93362 l -5.97062,18.87485 13.1202,0.13617 1.62058,-4.46142 -3.1366,-0.10457 6.30767,-20.03045 -2.50381,-4.04461 h -7.89661 l -3.08161,3.08161 h -3.08161 l -3.27421,-3.27421 h -6.74102 l -2.88901,2.88901 h -3.27421 l -3.2742,-3.08161 z"
     id="path3670"
     sodipodi:nodetypes="cccccccccccccccccccccccccccccc" />
</svg>
