<?xml version="1.0" encoding="utf-8"?>
<!-- Generator: Adobe Illustrator 22.1.0, SVG Export Plug-In . SVG Version: 6.00 Build 0)  -->
<svg version="1.1" id="Layer_1" xmlns="http://www.w3.org/2000/svg" xmlns:xlink="http://www.w3.org/1999/xlink" x="0px" y="0px"
	 viewBox="0 0 512 512" style="enable-background:new 0 0 512 512;" xml:space="preserve">
<g>
	<title>jetbrains</title>
	<g>
		<path d="M31,31h450v450H31V31z M70.4,424.8h168.7v-28.1H70.4L70.4,424.8z M92.9,160.3h5.6c13.1-1.8,22.5-13.1,22.5-28.1v-45h-20.7
			v46.9c0,7.5-1.8,9.4-7.5,9.4c-5.7,0-9.4-1.9-11.3-5.6l-13.1,11.3C74.1,158.5,83.5,162.3,92.9,160.3L92.9,160.3z M186.6,160.3
			v-16.8h-39.4v-11.3H181v-16.8h-33.8v-11.3h39.4V87.2h-60v75h60L186.6,160.3z M211,160.3h20.6v-56.2h22.5V87.2h-63.7v16.8h22.5
			v56.2H211z M136,231.6c0-9.4-5.6-16.8-15-16.8c7.5-1.9,11.2-9.4,11.2-16.9c0-3.7-1.8-9.4-3.7-13.1c-5.6-5.6-13.1-7.5-20.6-7.5
			H70.4v73.1h37.5C124.7,250.3,136,242.9,136,231.6z M89.2,194.1h13.1c5.6,0,9.4,1.9,9.4,5.6c0,5.6-3.7,7.5-9.4,7.5H89.2V194.1z
			 M89.2,233.5v-13.1h14.9c7.6,0,11.3,1.8,9.4,5.6c0,3.8-3.7,7.6-9.4,7.6H89.2z M227.9,177.3l-28.1,65.6L188.5,226
			c9.4-3.7,15-13.1,15-22.5c0-5.6-1.8-13.1-5.6-16.8c-7.5-7.6-16.8-9.4-24.3-9.4h-35.7v73.1h20.7v-22.5h9.4l15,22.5h33.7l5.6-13.1
			h28.1l5.6,13.1h22.5l-29.9-75h-20.7L227.9,177.3z M171.6,212.9h-13.1V196h13.1c5.6,0,11.3,1.8,11.3,9.4
			C182.9,209.1,179.1,212.9,171.6,212.9L171.6,212.9z M244.7,222.2h-14.9l7.5-20.6L244.7,222.2z M280.4,250.4H301v-73.1h-20.6V250.4
			z M355.4,216.6l-30-39.3h-18.7v73.1h20.7V211l31.9,41.2H376v-75h-20.6L355.4,216.6z M413.5,205.4c-9.4-1.9-13.1-3.7-13.1-7.6
			c0-1.8,1.9-3.7,7.6-3.7c7.5,0,14.9,3.7,20.6,7.6l11.3-15c-9.4-7.6-18.7-9.4-30-9.4c-16.8,0-28.1,11.2-28.1,24.4
			c0,14.9,11.3,18.7,28.1,22.5c9.4,1.8,13.1,3.7,13.1,7.5c0,3.7-3.7,5.6-9.4,5.6c-9.4,0-16.8-3.7-24.3-9.4L377.9,241
			c9.4,7.6,22.5,11.3,33.8,11.3c18.7,0,29.9-9.4,29.9-24.4C441.6,214.8,430.4,209.1,413.5,205.4L413.5,205.4z"/>
	</g>
</g>
</svg>
