<?xml version="1.0" encoding="UTF-8" standalone="no"?>
<svg
   xmlns:dc="http://purl.org/dc/elements/1.1/"
   xmlns:cc="http://creativecommons.org/ns#"
   xmlns:rdf="http://www.w3.org/1999/02/22-rdf-syntax-ns#"
   xmlns:svg="http://www.w3.org/2000/svg"
   xmlns="http://www.w3.org/2000/svg"
   xmlns:sodipodi="http://sodipodi.sourceforge.net/DTD/sodipodi-0.dtd"
   xmlns:inkscape="http://www.inkscape.org/namespaces/inkscape"
   width="192"
   height="192"
   version="1.1"
   viewBox="0 0 192 192"
   id="svg14"
   sodipodi:docname="icon-firefox.svg"
   inkscape:version="0.92.4 (5da689c313, 2019-01-14)">
  <metadata
     id="metadata20">
    <rdf:RDF>
      <cc:Work
         rdf:about="">
        <dc:format>image/svg+xml</dc:format>
        <dc:type
           rdf:resource="http://purl.org/dc/dcmitype/StillImage" />
        <dc:title></dc:title>
      </cc:Work>
    </rdf:RDF>
  </metadata>
  <defs
     id="defs18">
    <linearGradient
       id="a"
       x1="70.790001"
       x2="6.447"
       y1="12.39"
       y2="74.470001"
       gradientTransform="matrix(1.5545322,0,0,1.5545322,178.43023,80.117022)"
       gradientUnits="userSpaceOnUse">
      <stop
         stop-color="#fff44f"
         offset=".048"
         id="stop4" />
      <stop
         stop-color="#ffe847"
         offset=".111"
         id="stop6" />
      <stop
         stop-color="#ffc830"
         offset=".225"
         id="stop8" />
      <stop
         stop-color="#ff980e"
         offset=".368"
         id="stop10" />
      <stop
         stop-color="#ff8b16"
         offset=".401"
         id="stop12" />
      <stop
         stop-color="#ff672a"
         offset=".462"
         id="stop14" />
      <stop
         stop-color="#ff3647"
         offset=".534"
         id="stop16" />
      <stop
         stop-color="#e31587"
         offset=".705"
         id="stop18" />
    </linearGradient>
    <radialGradient
       id="b"
       cx="-7907"
       cy="-8515"
       r="80.800003"
       gradientTransform="matrix(1.5545322,0,0,1.5545322,12431.656,13284.712)"
       gradientUnits="userSpaceOnUse">
      <stop
         stop-color="#ffbd4f"
         offset=".129"
         id="stop21" />
      <stop
         stop-color="#ffac31"
         offset=".186"
         id="stop23" />
      <stop
         stop-color="#ff9d17"
         offset=".247"
         id="stop25" />
      <stop
         stop-color="#ff980e"
         offset=".283"
         id="stop27" />
      <stop
         stop-color="#ff563b"
         offset=".403"
         id="stop29" />
      <stop
         stop-color="#ff3750"
         offset=".467"
         id="stop31" />
      <stop
         stop-color="#f5156c"
         offset=".71"
         id="stop33" />
      <stop
         stop-color="#eb0878"
         offset=".782"
         id="stop35" />
      <stop
         stop-color="#e50080"
         offset=".86"
         id="stop37" />
    </radialGradient>
    <radialGradient
       id="c"
       cx="-7937"
       cy="-8482"
       r="80.800003"
       gradientTransform="matrix(1.5545322,0,0,1.5545322,12431.656,13284.712)"
       gradientUnits="userSpaceOnUse">
      <stop
         stop-color="#960e18"
         offset=".3"
         id="stop40" />
      <stop
         stop-color="#b11927"
         stop-opacity=".74"
         offset=".351"
         id="stop42" />
      <stop
         stop-color="#db293d"
         stop-opacity=".343"
         offset=".435"
         id="stop44" />
      <stop
         stop-color="#f5334b"
         stop-opacity=".094"
         offset=".497"
         id="stop46" />
      <stop
         stop-color="#ff3750"
         stop-opacity="0"
         offset=".53"
         id="stop48" />
    </radialGradient>
    <radialGradient
       id="d"
       cx="-7927"
       cy="-8533"
       r="58.529999"
       gradientTransform="matrix(1.5545322,0,0,1.5545322,12431.656,13284.712)"
       gradientUnits="userSpaceOnUse">
      <stop
         stop-color="#fff44f"
         offset=".132"
         id="stop51" />
      <stop
         stop-color="#ffdc3e"
         offset=".252"
         id="stop53" />
      <stop
         stop-color="#ff9d12"
         offset=".506"
         id="stop55" />
      <stop
         stop-color="#ff980e"
         offset=".526"
         id="stop57" />
    </radialGradient>
    <radialGradient
       id="e"
       cx="-7946"
       cy="-8461"
       r="38.470001"
       gradientTransform="matrix(1.5545322,0,0,1.5545322,12431.656,13284.712)"
       gradientUnits="userSpaceOnUse">
      <stop
         stop-color="#3a8ee6"
         offset=".353"
         id="stop60" />
      <stop
         stop-color="#5c79f0"
         offset=".472"
         id="stop62" />
      <stop
         stop-color="#9059ff"
         offset=".669"
         id="stop64" />
      <stop
         stop-color="#c139e6"
         offset="1"
         id="stop66" />
    </radialGradient>
    <radialGradient
       id="f"
       cx="-7936"
       cy="-8492"
       r="20.4"
       gradientTransform="matrix(1.5110053,-0.36531507,0.42749636,1.7690576,15721.045,12212.085)"
       gradientUnits="userSpaceOnUse">
      <stop
         stop-color="#9059ff"
         stop-opacity="0"
         offset=".206"
         id="stop69" />
      <stop
         stop-color="#8c4ff3"
         stop-opacity=".064"
         offset=".278"
         id="stop71" />
      <stop
         stop-color="#7716a8"
         stop-opacity=".45"
         offset=".747"
         id="stop73" />
      <stop
         stop-color="#6e008b"
         stop-opacity=".6"
         offset=".975"
         id="stop75" />
    </radialGradient>
    <radialGradient
       id="g"
       cx="-7938"
       cy="-8518"
       r="27.68"
       gradientTransform="matrix(1.5545322,0,0,1.5545322,12431.656,13284.712)"
       gradientUnits="userSpaceOnUse">
      <stop
         stop-color="#ffe226"
         offset="0"
         id="stop78" />
      <stop
         stop-color="#ffdb27"
         offset=".121"
         id="stop80" />
      <stop
         stop-color="#ffc82a"
         offset=".295"
         id="stop82" />
      <stop
         stop-color="#ffa930"
         offset=".502"
         id="stop84" />
      <stop
         stop-color="#ff7e37"
         offset=".732"
         id="stop86" />
      <stop
         stop-color="#ff7139"
         offset=".792"
         id="stop88" />
    </radialGradient>
    <radialGradient
       id="h"
       cx="-7916"
       cy="-8536"
       r="118.1"
       gradientTransform="matrix(1.5545322,0,0,1.5545322,12431.656,13284.712)"
       gradientUnits="userSpaceOnUse">
      <stop
         stop-color="#fff44f"
         offset=".113"
         id="stop91" />
      <stop
         stop-color="#ff980e"
         offset=".456"
         id="stop93" />
      <stop
         stop-color="#ff5634"
         offset=".622"
         id="stop95" />
      <stop
         stop-color="#ff3647"
         offset=".716"
         id="stop97" />
      <stop
         stop-color="#e31587"
         offset=".904"
         id="stop99" />
    </radialGradient>
    <radialGradient
       id="i"
       cx="-7927"
       cy="-8523"
       r="86.5"
       gradientTransform="matrix(0.16322588,1.5467595,-1.0151095,0.10726272,-7247.1675,13200.767)"
       gradientUnits="userSpaceOnUse">
      <stop
         stop-color="#fff44f"
         offset="0"
         id="stop102" />
      <stop
         stop-color="#ffe847"
         offset=".06"
         id="stop104" />
      <stop
         stop-color="#ffc830"
         offset=".168"
         id="stop106" />
      <stop
         stop-color="#ff980e"
         offset=".304"
         id="stop108" />
      <stop
         stop-color="#ff8b16"
         offset=".356"
         id="stop110" />
      <stop
         stop-color="#ff672a"
         offset=".455"
         id="stop112" />
      <stop
         stop-color="#ff3647"
         offset=".57"
         id="stop114" />
      <stop
         stop-color="#e31587"
         offset=".737"
         id="stop116" />
    </radialGradient>
    <radialGradient
       id="j"
       cx="-7938"
       cy="-8508"
       r="73.720001"
       gradientTransform="matrix(1.5545322,0,0,1.5545322,12431.656,13284.712)"
       gradientUnits="userSpaceOnUse">
      <stop
         stop-color="#fff44f"
         offset=".137"
         id="stop119" />
      <stop
         stop-color="#ff980e"
         offset=".48"
         id="stop121" />
      <stop
         stop-color="#ff5634"
         offset=".592"
         id="stop123" />
      <stop
         stop-color="#ff3647"
         offset=".655"
         id="stop125" />
      <stop
         stop-color="#e31587"
         offset=".904"
         id="stop127" />
    </radialGradient>
    <radialGradient
       id="k"
       cx="-7919"
       cy="-8504"
       r="80.690002"
       gradientTransform="matrix(1.5545322,0,0,1.5545322,12431.67,13284.745)"
       gradientUnits="userSpaceOnUse">
      <stop
         stop-color="#fff44f"
         offset=".094"
         id="stop130" />
      <stop
         stop-color="#ffe141"
         offset=".231"
         id="stop132" />
      <stop
         stop-color="#ffaf1e"
         offset=".509"
         id="stop134" />
      <stop
         stop-color="#ff980e"
         offset=".626"
         id="stop136" />
    </radialGradient>
    <linearGradient
       id="l"
       x1="70.010002"
       x2="15.27"
       y1="12.06"
       y2="66.809998"
       gradientTransform="matrix(1.5545322,0,0,1.5545322,110.11502,-33.046408)"
       gradientUnits="userSpaceOnUse">
      <stop
         stop-color="#fff44f"
         stop-opacity=".8"
         offset=".167"
         id="stop139" />
      <stop
         stop-color="#fff44f"
         stop-opacity=".634"
         offset=".266"
         id="stop141" />
      <stop
         stop-color="#fff44f"
         stop-opacity=".217"
         offset=".489"
         id="stop143" />
      <stop
         stop-color="#fff44f"
         stop-opacity="0"
         offset=".6"
         id="stop145" />
    </linearGradient>
  </defs>
  <sodipodi:namedview
     pagecolor="#ffffff"
     bordercolor="#666666"
     borderopacity="1"
     objecttolerance="10"
     gridtolerance="10"
     guidetolerance="10"
     inkscape:pageopacity="0"
     inkscape:pageshadow="2"
     inkscape:window-width="1920"
     inkscape:window-height="1001"
     id="namedview16"
     showgrid="false"
     inkscape:zoom="0.86915211"
     inkscape:cx="-213.60184"
     inkscape:cy="219.49451"
     inkscape:window-x="-9"
     inkscape:window-y="-9"
     inkscape:window-maximized="1"
     inkscape:current-layer="svg14" />
  <rect
     style="opacity:1;fill:#e67e80;stroke:none;fill-opacity:1"
     id="rect2"
     rx="10"
     height="153"
     width="153"
     y="19.5"
     x="19.5" />
  <path
     inkscape:connector-curvature="0"
     d="m 151.81502,75.587726 c -2.61783,-6.298964 -7.92811,-13.100043 -12.08649,-15.249961 a 62.601012,62.601012 0 0 1 6.10154,18.281299 v 0.05752 l 0.0109,0.06374 a 54.56408,54.56408 0 0 1 -1.87477,40.666566 c -6.90523,14.81625 -23.61334,30.00247 -49.77612,29.2563 -28.261395,-0.80059 -53.165001,-21.779 -57.813053,-49.247588 -0.84722,-4.332481 0,-6.529035 0.425942,-10.050051 a 44.89489,44.89489 0 0 0 -0.968473,8.313638 V 97.99009 A 60.253668,60.253668 0 0 0 155.45574,108.1785 c 0.10104,-0.77727 0.18343,-1.54677 0.27359,-2.3318 a 61.963653,61.963653 0 0 0 -3.90809,-30.266746 z"
     style="fill:url(#b);stroke-width:1.55453217"
     id="path152" />
  <path
     inkscape:connector-curvature="0"
     d="m 151.81502,75.587726 c -2.61783,-6.298964 -7.92811,-13.100043 -12.08649,-15.249961 a 62.601012,62.601012 0 0 1 6.10154,18.281299 v 0.05752 l 0.0109,0.06374 a 54.56408,54.56408 0 0 1 -1.87477,40.666566 c -6.90523,14.81625 -23.61334,30.00247 -49.77612,29.2563 -28.261395,-0.80059 -53.165001,-21.779 -57.813053,-49.247588 -0.84722,-4.332481 0,-6.529035 0.425942,-10.050051 a 44.89489,44.89489 0 0 0 -0.968473,8.313638 V 97.99009 A 60.253668,60.253668 0 0 0 155.45574,108.1785 c 0.10104,-0.77727 0.18343,-1.54677 0.27359,-2.3318 a 61.963653,61.963653 0 0 0 -3.90809,-30.266746 z"
     style="fill:#323c41;stroke-width:1.55453217;fill-opacity:1;stroke:none"
     id="path154" />
  <path
     inkscape:connector-curvature="0"
     d="m 122.52764,82.660848 c 0.13058,0.09172 0.25183,0.183435 0.37464,0.275152 a 32.800629,32.800629 0 0 0 -5.59632,-7.298529 C 98.573851,56.905358 112.3983,35.03309 114.72855,33.913827 l 0.0233,-0.0342 c -15.133374,8.860834 -20.271102,25.261149 -20.737462,33.469079 0.702648,-0.04819 1.399079,-0.107263 2.117273,-0.107263 a 30.40665,30.40665 0 0 1 26.395959,15.416296 z"
     style="fill:#53605c;stroke-width:1.55453217;fill-opacity:0.94117647;stroke:none"
     id="path156" />
  <path
     inkscape:connector-curvature="0"
     d="m 96.164326,86.397943 c -0.0995,1.498569 -5.39423,6.667389 -7.24568,6.667389 -17.13094,0 -19.91355,10.364068 -19.91355,10.364068 0.75861,8.72714 6.83994,15.91841 14.19132,19.71147 0.33578,0.1741 0.67622,0.33111 1.01666,0.48501 q 0.88453,0.39174 1.76906,0.72441 a 26.800135,26.800135 0 0 0 7.83951,1.51256 c 30.033564,1.40841 35.847514,-35.909691 14.175784,-46.744781 a 20.799641,20.799641 0 0 1 14.5271,3.527234 30.40665,30.40665 0 0 0 -26.395964,-15.416296 c -0.71508,0 -1.41462,0.05907 -2.11727,0.107263 a 30.142379,30.142379 0 0 0 -16.58686,6.390681 c 0.91873,0.777267 1.9556,1.815694 4.13972,3.968721 4.08842,4.027793 14.57374,8.200157 14.59706,8.689835 z"
     style="fill:#2b3339;fill-opacity:1;stroke-width:1.55453217;stroke:none"
     id="path160" />
  <path
     inkscape:connector-curvature="0"
     d="m 74.616955,71.748032 c 0.488123,0.310906 0.890747,0.581395 1.243626,0.825456 A 27.934944,27.934944 0 0 1 75.691137,57.847405 44.615074,44.615074 0 0 0 61.188906,69.055582 c 0.293806,-0.0078 9.033387,-0.16478 13.428049,2.69245 z"
     style="fill:#4c555b;stroke-width:1.55453217;fill-opacity:1"
     id="path162" />
  <path
     inkscape:connector-curvature="0"
     d="m 36.366136,99.418705 c 4.649606,27.468585 29.551657,48.454775 57.813052,49.247585 26.162772,0.73996 42.873992,-14.44782 49.776122,-29.2563 a 54.56408,54.56408 0 0 0 1.87476,-40.666563 v -0.05752 c 0,-0.04508 -0.009,-0.07151 0,-0.05752 l 0.0109,0.101045 c 2.13748,13.955035 -4.96052,27.468588 -16.05832,36.624788 l -0.0342,0.0777 c -21.62354,17.61285 -42.314367,10.62368 -46.496059,7.77267 q -0.438378,-0.20987 -0.876756,-0.43683 C 69.769924,116.74241 64.560686,105.26375 65.679949,95.408012 a 15.472259,15.472259 0 0 1 -14.27216,-8.977424 22.727261,22.727261 0 0 1 22.152084,-0.889192 30.002471,30.002471 0 0 0 22.618444,0.889192 c -0.02332,-0.489677 -10.508638,-4.663596 -14.597058,-8.689835 -2.184117,-2.153027 -3.22099,-3.1899 -4.139719,-3.96872 A 18.017028,18.017028 0 0 0 75.887008,72.593697 C 75.529465,72.349636 75.126842,72.085365 74.643382,71.768241 70.24872,68.91101 61.50914,69.068018 61.219997,69.075791 h -0.02798 C 58.804254,66.049117 58.972143,56.06902 59.108942,53.984392 a 10.769799,10.769799 0 0 0 -2.011565,1.067964 43.868899,43.868899 0 0 0 -5.888568,5.044457 52.60537,52.60537 0 0 0 -5.655388,6.742006 v 0.0093 -0.01088 a 50.879839,50.879839 0 0 0 -8.083567,18.250208 c -0.02954,0.122808 -2.170127,9.481091 -1.1146,14.334341 z"
     style="fill:#4c555b;stroke-width:1.55453217;fill-opacity:1;stroke:none"
     id="path164" />
  <path
     inkscape:connector-curvature="0"
     d="m 117.30441,75.634362 a 32.800629,32.800629 0 0 1 5.59631,7.306302 c 0.33112,0.250279 0.64047,0.499004 0.90319,0.739957 13.65967,12.591711 6.50261,30.391109 5.9694,31.650279 11.09625,-9.14221 18.18803,-22.665083 16.05832,-36.624782 -6.81507,-16.991037 -18.37457,-23.846524 -27.79504,-38.754488 -0.47724,-0.753948 -0.95448,-1.509451 -1.41929,-2.306926 -0.26582,-0.455478 -0.47879,-0.865874 -0.66378,-1.243625 a 10.964116,10.964116 0 0 1 -0.89852,-2.386207 0.15545322,0.15545322 0 0 0 -0.1368,-0.155454 0.21452544,0.21452544 0 0 0 -0.11348,0 c -0.008,0 -0.0202,0.01399 -0.0295,0.0171 -0.009,0.0031 -0.0295,0.0171 -0.0435,0.02332 -2.33025,1.105273 -16.151591,22.991531 2.58052,41.708099 z"
     style="fill:#3a454a;stroke-width:1.55453217;fill-opacity:1;stroke:none"
     id="path166" />
  <path
     inkscape:connector-curvature="0"
     d="m 123.80235,83.686839 c -0.26271,-0.240952 -0.57207,-0.489678 -0.90318,-0.739957 -0.12281,-0.09172 -0.24406,-0.183435 -0.37464,-0.275152 a 20.799641,20.799641 0 0 0 -14.52711,-3.527234 c 21.67018,10.835089 15.85623,48.143864 -14.175774,46.744784 a 26.800135,26.800135 0 0 1 -7.839506,-1.51256 q -0.884529,-0.33111 -1.769058,-0.72441 c -0.340442,-0.15545 -0.680885,-0.31091 -1.016664,-0.48501 l 0.04197,0.0264 c 4.187909,2.85879 24.872512,9.8433 46.496062,-7.77266 l 0.0342,-0.0777 c 0.53942,-1.25918 7.69649,-19.058572 -5.96941,-31.650283 z"
     style="fill:#4c555b;stroke-width:1.55453217;fill-opacity:1;stroke:none"
     id="path168" />
  <path
     inkscape:connector-curvature="0"
     d="m 69.019089,103.46205 c 0,0 2.78106,-10.364073 19.91356,-10.364073 1.85144,0 7.15084,-5.16882 7.24567,-6.667389 a 30.002471,30.002471 0 0 1 -22.61844,-0.889192 22.727261,22.727261 0 0 0 -22.15209,0.889192 15.472259,15.472259 0 0 0 14.27216,8.977424 c -1.11615,9.851078 4.09153,21.328188 16.69568,27.359778 0.28137,0.13524 0.54564,0.28137 0.83478,0.41039 -7.3576,-3.80083 -13.43271,-10.98899 -14.19132,-19.71147 z"
     style="fill:#53605c;stroke-width:1.55453217;fill-opacity:0.94117647"
     id="path170" />
</svg>
