<?xml version="1.0" encoding="UTF-8" standalone="no"?>
<svg
   xmlns:dc="http://purl.org/dc/elements/1.1/"
   xmlns:cc="http://creativecommons.org/ns#"
   xmlns:rdf="http://www.w3.org/1999/02/22-rdf-syntax-ns#"
   xmlns:svg="http://www.w3.org/2000/svg"
   xmlns="http://www.w3.org/2000/svg"
   xmlns:sodipodi="http://sodipodi.sourceforge.net/DTD/sodipodi-0.dtd"
   xmlns:inkscape="http://www.inkscape.org/namespaces/inkscape"
   width="192"
   height="192"
   version="1.1"
   viewBox="0 0 192 192"
   id="svg14"
   sodipodi:docname="icon-emacs.svg"
   inkscape:version="0.92.4 (5da689c313, 2019-01-14)">
  <metadata
     id="metadata20">
    <rdf:RDF>
      <cc:Work
         rdf:about="">
        <dc:format>image/svg+xml</dc:format>
        <dc:type
           rdf:resource="http://purl.org/dc/dcmitype/StillImage" />
        <dc:title></dc:title>
      </cc:Work>
    </rdf:RDF>
  </metadata>
  <defs
     id="defs18" />
  <sodipodi:namedview
     pagecolor="#ffffff"
     bordercolor="#666666"
     borderopacity="1"
     objecttolerance="10"
     gridtolerance="10"
     guidetolerance="10"
     inkscape:pageopacity="0"
     inkscape:pageshadow="2"
     inkscape:window-width="1920"
     inkscape:window-height="1001"
     id="namedview16"
     showgrid="false"
     inkscape:zoom="4.9166667"
     inkscape:cx="69.120819"
     inkscape:cy="81.554701"
     inkscape:window-x="-9"
     inkscape:window-y="-9"
     inkscape:window-maximized="1"
     inkscape:current-layer="svg14" />
  <rect
     style="opacity:1;fill:#a7c080;stroke:none;fill-opacity:1"
     id="rect2"
     rx="10"
     height="153"
     width="153"
     y="19.5"
     x="19.5" />
  <g
     id="g847"
     transform="matrix(0.91447649,0,0,0.91447649,8.2102571,8.2102603)">
    <g
       id="g838">
      <g
         id="g841">
        <path
           style="fill:#2b3339;fill-opacity:1;stroke-width:0.14848182"
           d="m 91.983947,162.59282 c -0.285828,-0.0324 -1.388305,-0.13168 -2.44995,-0.22056 -7.400206,-0.61952 -15.690733,-2.96332 -22.730161,-6.42596 -3.114758,-1.53214 -4.431462,-2.27823 -7.156779,-4.05531 -15.565522,-10.14972 -26.260424,-26.34871 -29.344242,-44.44611 -0.739408,-4.33923 -0.892108,-6.28439 -0.891703,-11.358863 4.46e-4,-4.956413 0.168738,-7.252692 0.808176,-11.024134 2.998491,-17.685257 12.876284,-33.366712 27.474377,-43.616851 3.898448,-2.737319 9.466539,-5.751529 13.725551,-7.430138 15.750107,-6.207612 33.397374,-6.207612 49.147484,0 2.61242,1.029639 7.71575,3.581644 10.06701,5.03418 10.60169,6.549402 18.97784,15.523711 24.54818,26.301209 3.89393,7.533978 6.1569,15.055636 7.13659,23.720609 0.36315,3.21192 0.35991,10.891221 -0.006,13.993768 -1.3167,11.16724 -4.86235,20.95653 -10.83659,29.91909 -5.68406,8.52723 -13.63094,15.94267 -22.50762,21.00247 -7.75179,4.41859 -16.71012,7.31423 -25.79225,8.33693 -1.92969,0.21728 -9.95041,0.41055 -11.192169,0.26967 z m 23.237403,-25.96405 c 6.29657,-0.61637 11.29221,-2.23388 12.17566,-3.94229 0.82697,-1.59918 -0.44718,-3.10337 -4.16006,-4.91114 -3.53615,-1.72171 -8.51677,-3.16317 -19.95201,-5.77437 -12.934778,-2.95362 -20.192764,-5.77303 -23.579239,-9.15951 -1.25419,-1.25419 -1.740008,-2.21785 -1.747496,-3.46632 -0.0082,-1.36902 0.507478,-2.36001 1.909392,-3.66924 2.595477,-2.42389 8.302053,-4.77542 13.972373,-5.757648 0.92026,-0.15941 4.919206,-0.368606 12.84368,-0.671886 6.32903,-0.242223 11.87297,-0.441086 12.31986,-0.441919 0.80254,-0.0015 0.80893,-0.005 0.51969,-0.28439 -0.16106,-0.155581 -5.43774,-4.20818 -11.72594,-9.005776 -6.2882,-4.797595 -11.800074,-9.063508 -12.248597,-9.479804 -2.251791,-2.089998 -3.204382,-3.605182 -3.080052,-4.899106 0.06383,-0.664242 0.15101,-0.821714 0.760417,-1.373446 1.286809,-1.165024 3.482209,-1.64288 8.183512,-1.781247 3.37814,-0.09942 8.17868,0.11394 10.81417,0.480644 0.88456,0.123078 3.28996,0.547634 5.34534,0.943457 4.91483,0.946489 6.09226,1.093757 8.12433,1.01615 2.02553,-0.07736 3.14203,-0.414217 4.61399,-1.392089 1.61538,-1.073158 2.7279,-2.793318 3.17678,-4.911934 0.27936,-1.318478 0.27506,-2.320738 -0.016,-3.729845 -0.88783,-4.298303 -4.16131,-7.58187 -8.75913,-8.786156 -2.54881,-0.667595 -3.05432,-0.672604 -13.91976,-0.137959 -5.53927,0.272565 -9.94918,0.541236 -9.7998,0.597044 0.14938,0.05581 1.88489,0.410521 3.8567,0.78825 8.54917,1.637723 13.99371,3.38229 15.72112,5.037443 0.5693,0.545479 0.66458,0.721574 0.66458,1.228163 0,1.482006 -1.44452,1.982409 -5.71655,1.980296 -5.33441,-0.0026 -10.11114,-0.498785 -19.9708,-2.074304 -7.0768,-1.130835 -9.492216,-1.336963 -12.312235,-1.050708 -6.309704,0.640483 -7.892381,3.795544 -4.828576,9.625752 3.653897,6.953109 10.514138,13.222128 21.949661,20.058018 1.37906,0.82437 2.53817,1.529642 2.5758,1.567272 0.0376,0.03763 -0.42252,-0.122114 -1.02256,-0.354984 -4.190616,-1.626342 -11.614398,-2.475961 -18.240634,-2.08756 -13.524594,0.792752 -22.982658,4.70803 -24.95941,10.332242 -1.248574,3.55242 0.501474,7.80572 5.119891,12.44336 8.185569,8.21962 23.340267,14.3641 38.321543,15.5375 2.26868,0.17769 3.82725,0.47771 4.77141,0.91847 1.83235,0.85541 1.57299,1.82 -0.60996,2.26855 -1.23626,0.25402 -3.32683,0.44292 -8.240739,0.74461 -7.212961,0.44283 -11.336922,0.57172 -18.73408,0.58552 -4.138039,0.008 -7.445471,0.056 -7.34985,0.10733 0.09562,0.0513 0.908839,0.26567 1.807154,0.47634 5.478559,1.28486 14.681506,2.20077 26.949445,2.6821 3.06675,0.12033 12.21401,-0.0534 14.47698,-0.27488 z"
           id="path3002"
           inkscape:connector-curvature="0" />
      </g>
    </g>
    <path
       style="fill:#2b3339;fill-opacity:1;stroke-width:0.14848182"
       d="m 92.429392,157.24841 c -0.285827,-0.0325 -1.350791,-0.13096 -2.366584,-0.21889 -1.015796,-0.0879 -2.853258,-0.32502 -4.08325,-0.52685 -24.223087,-3.9747 -43.833495,-22.20061 -49.592265,-46.09104 -1.192462,-4.94697 -1.641394,-8.88542 -1.641394,-14.399854 0,-4.321465 0.151027,-6.31811 0.758112,-10.022522 3.967042,-24.206765 22.203253,-43.825478 46.089091,-49.583141 4.946969,-1.192462 8.885422,-1.641394 14.399854,-1.641394 4.321464,0 6.318114,0.151027 10.022524,0.758113 24.20676,3.967042 43.82548,22.203253 49.58314,46.089091 1.19246,4.946968 1.64139,8.885422 1.64139,14.399853 0,4.321464 -0.15102,6.318114 -0.75811,10.022524 -3.96731,24.2084 -22.20233,43.82473 -46.09248,49.584 -2.29248,0.55266 -5.79508,1.15811 -8.23447,1.42341 -1.49334,0.16239 -8.756411,0.31675 -9.725558,0.2067 z M 116.038,136.63607 c 5.49228,-0.63245 9.57073,-1.90962 10.97987,-3.43835 0.32541,-0.35303 0.63608,-0.81891 0.69039,-1.0353 0.32428,-1.29202 -1.15337,-2.81826 -4.15808,-4.29483 -4.01046,-1.97081 -7.651,-3.05966 -18.41798,-5.50866 -14.523368,-3.30339 -21.450264,-5.88832 -25.214073,-9.40917 -2.438516,-2.28112 -2.544999,-4.67059 -0.307837,-6.90776 2.665291,-2.66529 9.042098,-5.28179 14.823607,-6.08234 1.018757,-0.141067 5.683693,-0.369104 12.398233,-0.606067 5.92071,-0.208948 11.29946,-0.428281 11.95278,-0.487405 l 1.18786,-0.107498 -11.95279,-9.121646 C 94.259156,79.135608 93.422326,78.399056 92.626002,76.087705 c -1.033943,-3.001039 3.653354,-4.386787 13.441808,-3.973923 5.00897,0.211272 6.2025,0.360719 12.27166,1.536585 5.6903,1.102464 7.59099,1.204627 9.7998,0.526746 2.67264,-0.820229 4.64035,-2.877527 5.34696,-5.590401 0.12161,-0.46688 0.22111,-1.48764 0.22111,-2.268358 0,-5.490725 -4.21855,-9.991246 -10.37606,-11.06962 -1.76264,-0.308692 -3.83545,-0.274215 -13.678,0.227508 -4.7774,0.243528 -8.84766,0.443377 -9.04502,0.444112 -0.77413,0.0029 -0.0641,0.178331 3.63784,0.898945 9.38455,1.826777 14.82344,3.576817 16.38657,5.272614 0.68604,0.744265 0.77533,1.290669 0.30801,1.884775 -0.72716,0.92443 -2.77385,1.180216 -7.95838,0.994605 -4.84182,-0.173342 -8.35893,-0.55445 -15.133322,-1.63982 -7.88837,-1.263849 -8.526103,-1.342807 -11.50734,-1.424751 -2.262258,-0.06218 -3.190455,-0.0281 -4.244732,0.155876 -3.490864,0.609159 -5.109314,1.991132 -5.233669,4.468966 -0.07014,1.397515 0.252429,2.601196 1.235273,4.609509 3.393433,6.934029 10.622522,13.69312 21.680732,20.27116 2.512598,1.494634 2.610428,1.572586 1.480778,1.179939 -6.070845,-2.110126 -16.312791,-2.527253 -25.259304,-1.028746 -6.891399,1.154283 -12.613216,3.572893 -15.372607,6.497993 -1.708546,1.811149 -2.349533,3.320971 -2.349533,5.534241 0,2.94305 1.629478,6.005 5.120342,9.62162 4.998872,5.17896 12.163864,9.35909 21.160938,12.34551 6.104389,2.02624 11.307233,3.10174 17.595094,3.63714 2.72944,0.2324 3.84008,0.46223 4.94884,1.02408 0.862,0.43681 1.11895,0.72152 0.99724,1.10498 -0.22935,0.72261 -1.94418,1.08992 -6.61425,1.41676 -8.906778,0.62334 -14.489286,0.8264 -23.088919,0.83984 -4.573814,0.007 -6.85702,0.0596 -6.6257,0.15217 2.826358,1.13122 13.005037,2.44942 22.810218,2.95405 1.714965,0.0883 3.519019,0.18258 4.009009,0.20959 0.48999,0.027 4.131502,0.0342 8.092262,0.0159 5.59385,-0.0258 7.68196,-0.0886 9.35435,-0.28119 z"
       id="path3000"
       inkscape:connector-curvature="0" />
  </g>
</svg>
